<svg xmlns="http://www.w3.org/2000/svg" xmlns:xlink="http://www.w3.org/1999/xlink" width="481" height="402" viewBox="0 0 481 402"><defs><style>.a,.k{fill:#fff;}.a{stroke:#707070;}.b{clip-path:url(#a);}.c{fill:#e6e6e6;}.d{fill:#ccc;}.e{fill:#6c63ff;}.f{opacity:0.2;}.g{fill:#2f2e41;}.h{fill:#a0616a;}.i{fill:#575a89;}.j{fill:#3f3d56;}.l{fill:#b3b3b3;}.m{fill:#d0cde1;}</style><clipPath id="a"><rect class="a" width="481" height="402" rx="20"/></clipPath></defs><g class="b"><g transform="translate(0.515 24.049)"><rect class="c" width="201.893" height="5.922" transform="translate(278.419 131.038)"/><rect class="c" width="51.146" height="51.146" transform="translate(295.109 81.507)"/><rect class="d" width="30.688" height="30.688" transform="translate(305.338 91.736)"/><rect class="c" width="12.921" height="51.146" transform="translate(409.784 81.507)"/><rect class="d" width="12.921" height="5.922" transform="translate(409.784 89.583)"/><rect class="d" width="12.921" height="5.922" transform="translate(409.784 115.424)"/><rect class="c" width="12.921" height="51.146" transform="translate(389.864 81.507)"/><rect class="d" width="12.921" height="5.922" transform="translate(389.864 89.583)"/><rect class="d" width="12.921" height="5.922" transform="translate(389.864 115.424)"/><rect class="c" width="12.921" height="51.146" transform="matrix(0.896, -0.444, 0.444, 0.896, 422.258, 87.029)"/><rect class="d" width="12.921" height="5.922" transform="matrix(0.896, -0.444, 0.444, 0.896, 425.842, 94.265)"/><rect class="d" width="12.921" height="5.922" transform="matrix(0.896, -0.444, 0.444, 0.896, 437.308, 117.425)"/><path class="c" d="M341.618,111.318l6.507,11.27,6.507,11.27H328.6l6.507-11.27Z" transform="translate(-27.397 -9.281)"/><path class="c" d="M353.953,113.668l6.507,11.27,6.507,11.27H340.939l6.507-11.27Z" transform="translate(-28.426 -9.477)"/><circle class="c" cx="3.769" cy="3.769" r="3.769" transform="translate(326.335 93.351)"/><rect class="c" width="201.893" height="5.922" transform="translate(480.312 55.664) rotate(180)"/><rect class="c" width="51.146" height="51.146" transform="translate(463.622 51.357) rotate(180)"/><rect class="d" width="30.688" height="30.688" transform="translate(453.393 41.128) rotate(180)"/><rect class="c" width="12.921" height="51.146" transform="translate(348.947 51.357) rotate(180)"/><rect class="d" width="12.921" height="5.922" transform="translate(348.947 14.209) rotate(180)"/><rect class="d" width="12.921" height="5.922" transform="translate(348.947 40.051) rotate(180)"/><rect class="c" width="12.921" height="51.146" transform="translate(368.867 51.357) rotate(180)"/><rect class="d" width="12.921" height="5.922" transform="translate(368.867 14.209) rotate(180)"/><rect class="d" width="12.921" height="5.922" transform="translate(368.867 40.051) rotate(180)"/><rect class="c" width="12.921" height="51.146" transform="matrix(-0.896, -0.444, 0.444, -0.896, 313.78, 51.569)"/><rect class="d" width="12.921" height="5.922" transform="matrix(-0.896, -0.444, 0.444, -0.896, 330.262, 18.277)"/><rect class="d" width="12.921" height="5.922" transform="matrix(-0.896, -0.444, 0.444, -0.896, 318.796, 41.437)"/><path class="c" d="M483.757,22.628,477.251,33.9l-6.507,11.27h26.028L490.264,33.9Z" transform="translate(-39.248 -1.887)"/><path class="c" d="M471.423,24.977l-6.507,11.27-6.507,11.27h26.028l-6.507-11.27Z" transform="translate(-38.22 -2.083)"/><circle class="c" cx="3.769" cy="3.769" r="3.769" transform="translate(424.859 12.055)"/><rect class="c" width="201.893" height="5.922" transform="translate(480.312 218.255) rotate(180)"/><rect class="c" width="51.146" height="51.146" transform="translate(463.622 213.948) rotate(180)"/><rect class="d" width="30.688" height="30.688" transform="translate(453.393 203.719) rotate(180)"/><rect class="c" width="12.921" height="51.146" transform="translate(348.947 213.948) rotate(180)"/><rect class="d" width="12.921" height="5.922" transform="translate(348.947 176.8) rotate(180)"/><rect class="d" width="12.921" height="5.922" transform="translate(348.947 202.642) rotate(180)"/><rect class="c" width="12.921" height="51.146" transform="translate(368.867 213.948) rotate(180)"/><rect class="d" width="12.921" height="5.922" transform="translate(368.867 176.8) rotate(180)"/><rect class="d" width="12.921" height="5.922" transform="translate(368.867 202.642) rotate(180)"/><rect class="c" width="12.921" height="51.146" transform="matrix(-0.896, -0.444, 0.444, -0.896, 313.779, 214.16)"/><rect class="d" width="12.921" height="5.922" transform="matrix(-0.896, -0.444, 0.444, -0.896, 330.262, 180.868)"/><rect class="d" width="12.921" height="5.922" transform="matrix(-0.896, -0.444, 0.444, -0.896, 318.796, 204.028)"/><path class="c" d="M483.757,200.008l-6.507,11.27-6.507,11.271h26.028l-6.507-11.271Z" transform="translate(-39.248 -16.676)"/><path class="c" d="M471.423,202.357l-6.507,11.27L458.409,224.9h26.028l-6.507-11.271Z" transform="translate(-38.22 -16.872)"/><circle class="c" cx="3.769" cy="3.769" r="3.769" transform="translate(424.859 174.646)"/><ellipse class="c" cx="237.83" cy="16.891" rx="237.83" ry="16.891" transform="translate(0 320.1)"/><path class="e" d="M580.743,474.262c-38.78-6.9-81.187-5.755-125.672,0,20.275-17.117,37.774-34.233,17.5-51.35,39.549,8.159,45.089,7.333,89.083,0C551.45,440.029,570.539,457.146,580.743,474.262Z" transform="translate(-157.109 -127.811)"/><path class="f" d="M580.743,474.262c-38.78-6.9-81.187-5.755-125.672,0,20.275-17.117,37.774-34.233,17.5-51.35,39.549,8.159,45.089,7.333,89.083,0C551.45,440.029,570.539,457.146,580.743,474.262Z" transform="translate(-157.109 -127.811)"/><path class="e" d="M572.144,467.238c-32.942-5.51-68.966-4.594-106.753,0,17.223-13.663,32.088-27.325,14.865-40.988,33.6,6.513,38.3,5.854,75.673,0C547.261,439.913,563.476,453.575,572.144,467.238Z" transform="translate(-157.969 -128.09)"/><circle class="g" cx="17.552" cy="17.552" r="17.552" transform="translate(384.075 282.03)"/><path class="h" d="M349.45,304.621l12.162,2.027,6.081,17.567-17.567,10.811-20.27-30.4H349.45Z" transform="translate(-27.501 -25.398)"/><circle class="h" cx="28.377" cy="28.377" r="28.377" transform="translate(328.03 249.495)"/><path class="g" d="M338.378,291.339s-68.916,7.432-81.078,6.081a150.594,150.594,0,0,1-17.567-2.7s-8.108,10.81-4.054,15.54a29.239,29.239,0,0,0,8.108,6.757s7.432-2.027,12.837,0,60.133,10.81,69.592,2.7S338.378,291.339,338.378,291.339Z" transform="translate(-138.722 -116.841)"/><path class="g" d="M343.764,444.29S298.5,431.452,290.387,374.7v-5.405s-8.957,15.713-12.162,18.918c-3.716,3.716-16.891,37.161-16.216,40.539s0,4.73,0,4.73l-19.594-2.027v-6.081s10.473-31.418,11.148-38.85,26.013-59.12,26.013-59.12,9.459-19.594,25.675,0,17.567,33.107,17.567,33.107l20.945,40.539Z" transform="translate(-139.379 -119.122)"/><path class="g" d="M238.971,291.536,217.35,284.1s-20.27-14.864-15.54,0,26.35,47.3,32.431,43.917,13.394-11.764,11.764-12.976S233.566,305.049,238.971,291.536Z" transform="translate(-135.934 -115.687)"/><path class="g" d="M242.506,430.723l-17.453,8.524s-21.106,3.247-9.336,9.336,44.242,12.583,45.866,6.9.979-15.113-.728-14.863S247.376,442.088,242.506,430.723Z" transform="translate(-136.855 -128.462)"/><path class="i" d="M343.165,405.406s-8.783,37.837,6.081,45.944,118.915,9.459,127.023-5.406,4.054-14.864,4.054-14.864L458.7,406.757l17.567-1.351s0-5.405-6.081-6.081-25-7.432-41.215-2.7-25.675-9.459-25.675-9.459Z" transform="translate(-147.564 -124.831)"/><path class="j" d="M199.818,176.794,188.331,239.63l79.052-9.459,14.189-56.755Z" transform="translate(-15.702 -14.459)"/><path class="k" d="M202.582,179.374l-9.459,56.079,71.957-8.445L278.93,176Z" transform="translate(-16.101 -14.674)"/><path class="l" d="M190.911,246.329l-2.7-.676-1.351,2.7,21.621,60.133,2.033-.777.669-3.952Z" transform="translate(-15.579 -20.482)"/><path class="m" d="M188.331,244.116l21.621,62.836,81.754-12.162-24.323-59.457Z" transform="translate(-15.702 -19.621)"/><path class="j" d="M200.125,242.09v3.378l60.133-6.756-.676-3.378Z" transform="translate(-16.685 -19.621)"/><path class="j" d="M201.6,249.522l9.459,26.35,61.484-7.432-10.81-25Z" transform="translate(-16.808 -20.297)"/><path class="h" d="M413.154,389.062l-2.027-5.405s-15.54-27.026-23.648-21.621,16.891,31.756,16.891,31.756h8.108Z" transform="translate(-151.338 -122.676)"/><path class="h" d="M359.292,393.115l-2.027-8.108s-5.405-25,4.054-23.648,12.162,25,12.162,25l-.676,5.405Z" transform="translate(-148.826 -122.675)"/><path class="i" d="M375.581,392.242s-17.567-2.7-18.243,1.351-4.054,64.863,12.837,66.89,100.672,10.81,91.889-10.135-22.3-18.243-22.3-18.243l-57.43,6.081Z" transform="translate(-148.9 -125.181)"/><path class="i" d="M302.459,298.693l-17.9-12.5-11.824,9.121,14.865,16.216Z" transform="translate(-22.739 -23.862)"/><path class="f" d="M252.829,313.1l2.7,25.675,46.62-2.7-40.539-.676Z" transform="translate(-21.079 -26.105)"/><circle class="g" cx="33.783" cy="33.783" r="33.783" transform="translate(336.633 249.246)"/><path class="e" d="M214.5,199.521l41.891-1.458,4.054-15.433-43.242,1.3Z" transform="translate(-17.884 -15.227)"/><path class="c" d="M202.705,210.21l63.511-2.027.676-2.7-63.511,2.236Z" transform="translate(-16.9 -17.132)"/><path class="c" d="M201.231,217.581l63.512-2.027.676-2.7-63.512,2.236Z" transform="translate(-16.777 -17.747)"/><path class="c" d="M200.494,223.478,264,221.451l.676-2.7-63.512,2.236Z" transform="translate(-16.716 -18.238)"/></g></g></svg>