<svg xmlns="http://www.w3.org/2000/svg" xmlns:xlink="http://www.w3.org/1999/xlink" width="480" height="402" viewBox="0 0 480 402"><defs><style>.a,.i{fill:#fff;}.a{stroke:#707070;}.b{clip-path:url(#a);}.c{fill:#4b7fcf;}.d{fill:#e6e6e6;}.e{fill:#ffb8b8;}.f{fill:#2f2e41;}.g{opacity:0.2;}.h{fill:#3f3d56;}</style><clipPath id="a"><rect class="a" width="480" height="402" rx="20"/></clipPath></defs><g class="b"><g transform="translate(11.972 0.25)"><circle class="c" cx="36.643" cy="36.643" r="36.643" transform="translate(0 44.321)"/><path class="d" d="M531.722,355.276a66.439,66.439,0,0,1-3.1,18.366c-.043.138-.089.274-.134.412H516.9c.012-.124.025-.262.037-.412.772-8.878,5.225-62.914-.1-72.154C517.3,302.237,532.617,327.066,531.722,355.276Z" transform="translate(-106.599 -38.569)"/><path class="d" d="M531.309,376.64c-.1.138-.2.276-.3.412H522.32c.066-.117.142-.255.231-.412,1.435-2.591,5.684-10.336,9.628-18.366,4.238-8.629,8.127-17.586,7.8-20.827C540.08,338.178,543.012,360.465,531.309,376.64Z" transform="translate(-107.056 -41.567)"/><rect class="d" width="333.051" height="1.089" transform="translate(123.379 334.695)"/><path class="e" d="M436.461,412.052l1.618-13.348,45.705-11.73L478.526,371.2c3.663-10.506,10.093-15.656,21.841-10.516l20.209,12.554a12.9,12.9,0,0,1,6.074,11.655h0a12.891,12.891,0,0,1-7.339,10.957C496.687,406.573,467.853,410.676,436.461,412.052Z" transform="translate(-99.898 -43.337)"/><path class="f" d="M436.433,418.863l-14.157-2.022-13.241,2.7a5.719,5.719,0,0,1-6.858-5.366h0a5.719,5.719,0,0,1,2.273-4.806L425.2,393.739a9.367,9.367,0,0,1,12.134.734l5.167,4.975a19.219,19.219,0,0,0-8.089,10.516Q439.741,412.895,436.433,418.863Z" transform="translate(-97.039 -46.103)"/><circle class="e" cx="13.092" cy="13.092" r="13.092" transform="translate(339.822 206.441)"/><path class="e" d="M473.948,280.556l-29.324,12.336c2.383-11.966,3.571-22.867,0-29.527l18.808-2.225C462.5,266.259,467.257,273.113,473.948,280.556Z" transform="translate(-100.578 -35.205)"/><path class="e" d="M420.531,408.1l-10.921-.809c-6.69-27.9-10.116-54.268-8.62-78.333a13.612,13.612,0,0,1,13.882-12.792h0a13.594,13.594,0,0,1,9.062,3.743l14.122,13.439a58.119,58.119,0,0,1,14.309,21.305c4,10.475,2.564,16.348-6.985,15.351a23.562,23.562,0,0,1-15.342-8.157l-10.317-11.99Z" transform="translate(-96.912 -39.793)"/><path class="f" d="M412.319,448.882h0a9.343,9.343,0,0,1-8.235-12.338l2.131-6.252,1.618-15.774c2.492-5.086,6.022-4.325,10.112-.4,2.6-.255,3.158-2.855,2.831-6.472l8.2,11.038a6.58,6.58,0,0,1,.705,6.654l-8.252,18.1a9.343,9.343,0,0,1-9.109,5.448Z" transform="translate(-97.157 -47.419)"/><path class="f" d="M518.09,369.837c-14.966,8.494-19.656,8.74-34.582,14.763l-12.943-7.281c-15.2,5.621-25.864-2.084-37.414-13.55,7.558-12.589,4.215-28.948,8.9-28.718l56.02,17.595,2.427,6.067Z" transform="translate(-99.622 -41.367)"/><path class="c" d="M499.683,351.56c-19.78,8.562-41.077-.5-59.255-20.426l-12.036-48.61a4.057,4.057,0,0,1,3.125-5.02l13.967-2.793,6.876,10.921L466.111,273.5l14.6,4.775a11.276,11.276,0,0,1,7.6,8.762Z" transform="translate(-99.214 -36.235)"/><path class="g" d="M471.485,401.6h0a7.143,7.143,0,0,1-2.905-11.294l9.246-10.906,6.472,3.64-3.332,13.586a7.143,7.143,0,0,1-9.48,4.973Z" transform="translate(-102.435 -45.065)"/><path class="e" d="M471.485,399.835h0a7.143,7.143,0,0,1-2.905-11.294l9.246-10.906,6.472,3.64-3.332,13.586a7.143,7.143,0,0,1-9.48,4.973Z" transform="translate(-102.435 -44.918)"/><path class="c" d="M486.764,376.307l-9.708-6.471,14.157-37.616-5.258-52.986,4.8,3a22.413,22.413,0,0,1,10.077,14.5l7.777,37.912C505.2,352.121,499.531,367.5,486.764,376.307Z" transform="translate(-103.283 -36.714)"/><path class="g" d="M411.964,294.877l4.854,24.268-3.992,14.193Z" transform="translate(-34.347 -15.348)"/><path class="f" d="M440.224,251.091s-7.544-24.691,15.513-19.513a17.643,17.643,0,0,1,9.124,5.6,2.222,2.222,0,0,0,1.737.71c3.683,0,5.959,13.162-1.408,18.951,0,0,1.5-7.789-1.229-10.443a5.861,5.861,0,0,1-1.216-1.566c-1.778-3.587-7.756-4.765-11.879-4.459-2.1.156-2.289,3.826-4.619,3.313C440.946,242.519,439.253,248.661,440.224,251.091Z" transform="translate(-100.113 -32.681)"/><path class="d" d="M464,292.818l-.152,1.118-.942,6.9-1.543,11.3-.386,2.828a.9.9,0,0,1-.893.779H449.79a.9.9,0,0,1-.893-.777l-.393-2.831-1.569-11.3-.959-6.9-.154-1.111a.9.9,0,0,1,.892-1.025H463.1a.9.9,0,0,1,.893,1.023Z" transform="translate(-100.678 -37.761)"/><path class="h" d="M378.614,263.8h14.271a.9.9,0,0,1,.9.9v1.191a.9.9,0,0,1-.9.9H378.614a.9.9,0,0,1-.9-.9V264.7a.9.9,0,0,1,.9-.9Z" transform="translate(-31.492 -12.757)"/><path class="h" d="M465.092,293.156a95.391,95.391,0,0,1-20.7,0,.9.9,0,0,1-.9-.9h0v-1.191a.9.9,0,0,1,.9-.9,84.817,84.817,0,0,0,20.7,0,.9.9,0,0,1,.9.9v1.191A.9.9,0,0,1,465.092,293.156Z" transform="translate(-100.484 -37.625)"/><circle class="i" cx="3.89" cy="3.89" r="3.89" transform="translate(349.951 261.581)"/><path class="e" d="M464.156,312.617h0a7.143,7.143,0,0,1-8.772,7.684l-13.9-3.338.332-7.418,13.63-3.149a7.143,7.143,0,0,1,8.712,6.221Z" transform="translate(-100.317 -38.963)"/><path class="c" d="M441.445,315.857l-37.52.938a9.319,9.319,0,0,1-9.458-10.634h0a9.319,9.319,0,0,1,2.859-5.488l17.666-16.526a23.59,23.59,0,0,1,11.768-5.959l6.191-1.161,3.64,27.5L415.559,302.1l24.673,2.831Z" transform="translate(-96.389 -36.53)"/><path class="f" d="M382.8,406.87H287.011a3.212,3.212,0,0,1-3.212-3.212h0a432.942,432.942,0,0,1,102.21,0h0a3.212,3.212,0,0,1-3.212,3.212Z" transform="translate(-87.17 -46.835)"/><path class="h" d="M386.009,397.936,283.8,397.747l11.846-19.932.057-.094V333.793a4.06,4.06,0,0,1,4.06-4.06H369.48a4.06,4.06,0,0,1,4.06,4.06v44.229Z" transform="translate(-87.17 -40.924)"/><path class="i" d="M300.993,332.825a1.324,1.324,0,0,0-1.322,1.322V374.2a1.324,1.324,0,0,0,1.322,1.322h70.47a1.324,1.324,0,0,0,1.323-1.322V334.147a1.324,1.324,0,0,0-1.322-1.322Z" transform="translate(-88.493 -41.182)"/><path class="f" d="M301.234,385.177a.568.568,0,0,0-.515.33l-3.65,7.935a.567.567,0,0,0,.515.8h76.758a.567.567,0,0,0,.507-.82l-3.967-7.935a.564.564,0,0,0-.507-.313Z" transform="translate(-88.272 -45.547)"/><circle class="i" cx="0.85" cy="0.85" r="0.85" transform="translate(246.601 289.281)"/><path class="f" d="M330.878,396.719a.568.568,0,0,0-.547.419l-.916,3.4a.567.567,0,0,0,.547.714h17.412a.567.567,0,0,0,.535-.752l-1.177-3.4a.567.567,0,0,0-.536-.381Z" transform="translate(-90.971 -46.509)"/><path class="f" d="M305.332,356.632v.756H227.438l.058-.095v-.661Z" transform="translate(-18.962 -20.497)"/><path class="d" d="M260.713,347.6a85.157,85.157,0,0,0,3.978,23.54c.055.177.113.351.172.528h14.845c-.016-.158-.032-.335-.048-.528-.99-11.379-6.7-80.638.127-92.481C279.19,279.615,259.562,311.439,260.713,347.6Z" transform="translate(-85.241 -36.665)"/><path class="d" d="M260.876,374.978c.124.177.253.354.385.528H272.4c-.084-.15-.182-.327-.3-.528-1.84-3.321-7.285-13.248-12.34-23.54-5.432-11.06-10.416-22.54-10-26.694C249.636,325.681,245.877,354.247,260.876,374.978Z" transform="translate(-84.29 -40.508)"/><path class="h" d="M288.515,117.2l6.036-4.827c-4.689-.517-6.615,2.04-7.4,4.064-3.663-1.521-7.651.472-7.651.472l12.076,4.384a9.138,9.138,0,0,0-3.057-4.093Z" transform="translate(-86.811 -22.796)"/><path class="h" d="M486.834,90.088l6.035-4.827c-4.689-.517-6.615,2.04-7.4,4.064-3.663-1.521-7.651.472-7.651.472l12.076,4.384A9.138,9.138,0,0,0,486.834,90.088Z" transform="translate(-103.346 -20.536)"/><path class="h" d="M448.918,159.975l6.036-4.827c-4.689-.517-6.615,2.04-7.4,4.064-3.663-1.521-7.651.472-7.651.472l12.076,4.384A9.139,9.139,0,0,0,448.918,159.975Z" transform="translate(-100.185 -26.362)"/><ellipse class="d" cx="54.495" cy="111.192" rx="54.495" ry="111.192" transform="translate(18.724 19.339) rotate(-10.221)"/><path class="h" d="M160,121.73q7.19,19.551,12.8,39.635,5.6,20.065,9.573,40.534t6.306,41.2q2.318,20.7,2.978,41.543.657,20.82-.363,41.647-.125,2.552-.276,5.1c-.1,1.742,2.607,1.736,2.709,0q1.228-20.893.771-41.838-.46-20.825-2.586-41.569-2.131-20.8-5.906-41.4t-9.2-40.823q-5.416-20.215-12.454-39.949-.859-2.406-1.741-4.8c-.6-1.623-3.216-.921-2.612.72Z" transform="translate(-76.841 -23.445)"/><path class="h" d="M180.143,174.524l12-26.649,3.383-7.511a1.4,1.4,0,0,0-.486-1.853,1.365,1.365,0,0,0-1.853.486l-12,26.648-3.383,7.511a1.4,1.4,0,0,0,.486,1.853,1.365,1.365,0,0,0,1.853-.486Z" transform="translate(-78.318 -24.966)"/><path class="h" d="M179.918,196.48l-27.366-10.26-7.713-2.892a1.366,1.366,0,0,0-1.666.946,1.384,1.384,0,0,0,.946,1.666L171.485,196.2l7.713,2.892a1.366,1.366,0,0,0,1.666-.946,1.384,1.384,0,0,0-.946-1.666Z" transform="translate(-75.442 -28.714)"/><path class="d" d="M160.016,355.812s32.959-10.836,63.661,0" transform="translate(-76.849 -42.697)"/><path class="c" d="M320.781,350.351c6.531-.068,13.061-.185,19.592-.273q3.266-.044,6.532-.078a1.459,1.459,0,0,0,0-2.917c-6.531.068-13.061.185-19.592.273q-3.266.044-6.532.078A1.459,1.459,0,0,0,320.781,350.351Z" transform="translate(-90.136 -42.371)"/><path class="c" d="M320.781,357.777l26.4-.273,7.507-.078a1.46,1.46,0,0,0,0-2.917l-26.4.273-7.507.078A1.459,1.459,0,0,0,320.781,357.777Z" transform="translate(-90.136 -42.99)"/><path class="c" d="M320.781,365.2l26.4-.273,7.507-.078a1.459,1.459,0,0,0,0-2.917l-26.4.273-7.507.078A1.459,1.459,0,0,0,320.781,365.2Z" transform="translate(-90.136 -43.609)"/></g></g></svg>