<svg xmlns="http://www.w3.org/2000/svg" xmlns:xlink="http://www.w3.org/1999/xlink" width="480" height="402" viewBox="0 0 480 402"><defs><style>.a,.h{fill:#fff;}.a{stroke:#707070;}.b{clip-path:url(#a);}.c,.g,.i{fill:#4b7fcf;}.c,.e,.m{opacity:0.1;}.d{fill:#d0d2d5;}.f,.n{fill:#444053;}.i{opacity:0.3;}.j,.o{fill:#3f3d56;}.j{opacity:0.2;}.k{fill:#ee8e9e;}.l{fill:#454b69;}.n{opacity:0.6;}.p{fill:url(#b);}.q{fill:#a26565;}.r{fill:#efb7b9;}</style><clipPath id="a"><rect class="a" width="480" height="402" rx="20"/></clipPath><linearGradient id="b" x1="0.5" y1="1" x2="0.5" gradientUnits="objectBoundingBox"><stop offset="0" stop-color="gray" stop-opacity="0.251"/><stop offset="0.54" stop-color="gray" stop-opacity="0.122"/><stop offset="1" stop-color="gray" stop-opacity="0.102"/></linearGradient></defs><g class="b"><g transform="translate(0 18.789)"><path class="c" d="M295.3,73.29c-30.792-1.156-60.121-11.932-88.124-23.712s-55.747-24.836-85.8-31.08c-19.332-4.016-41.439-4.573-57.014,6.645C49.373,35.947,44.531,54.616,41.93,71.909c-1.96,13.023-3.111,26.71,2.253,38.918,3.728,8.46,10.346,15.575,14.924,23.68,15.919,28.211,4.676,62.994-12.59,90.533-8.076,12.922-17.483,25.245-23.727,39s-9.135,29.51-3.673,43.537c5.42,13.908,18.324,24.352,32.3,31.7,28.4,14.921,61.864,19.194,94.5,21.612,72.239,5.333,144.861,3.03,217.288.728,26.8-.861,53.724-1.732,80.094-6.222,14.639-2.491,29.754-6.447,40.381-16,13.5-12.13,16.841-32.669,7.8-47.893-15.166-25.508-57.107-31.845-67.708-59.222-5.836-15.068.157-31.854,8.637-45.83,18.193-29.984,48.687-56.284,50.293-90.556,1.105-23.537-13.555-47.111-36.22-58.246-23.761-11.674-56.7-10.2-74.233,9.118C354.206,66.659,322.488,74.313,295.3,73.29Z" transform="translate(-16.231 -15.871)"/><path class="d" d="M300.458,350.236l-82.887-1.151.242-2.3,4.008-37.992h72.792l5.356,37.992.408,2.878Z" transform="translate(-18.14 -2.14)"/><path class="e" d="M300.377,349.925H259.014l-41.444-.576.242-2.3h82.156Z" transform="translate(-18.14 -2.405)"/><rect class="d" width="109.985" height="2.878" transform="translate(185.616 345.218)"/><path class="f" d="M424.008,94.821c.019-4.138-3.062-7.509-6.882-7.529H109.972c-3.821.018-6.9,3.39-6.886,7.529V296.526H424.008Z" transform="translate(-23.472 -16.365)"/><path class="d" d="M103.086,295.968v23.624a7.19,7.19,0,0,0,6.886,7.46H417.126a7.191,7.191,0,0,0,6.882-7.46V295.968Z" transform="translate(-23.472 -17.81)"/><rect class="c" width="295.95" height="181.328" transform="translate(92.897 83.59)"/><path class="g" d="M279.23,318.132a6.992,6.992,0,0,0,5.645-2.966h0a7.983,7.983,0,0,0,.557-.889l-3.936-.7,4.251.037a8.355,8.355,0,0,0,.136-6.162l-5.709,3.224,5.267-4.191a7.057,7.057,0,0,0-6.548-3.847,7.2,7.2,0,0,0-6.167,4.526,8.3,8.3,0,0,0,.869,8.015h0A6.982,6.982,0,0,0,279.23,318.132Z" transform="translate(-37.561 -17.856)"/><path class="e" d="M271.478,311.4l33.066,35.975L299.473,311.4Z" transform="translate(-22.635 -2.158)"/><rect class="h" width="194.253" height="126.181" rx="1.206" transform="translate(101.59 116.305)"/><rect class="h" width="295.843" height="10.592" transform="translate(93.088 83.609)"/><rect class="g" width="8.501" height="6.447" rx="0.362" transform="translate(94.363 85.451)"/><rect class="i" width="89.263" height="6.447" rx="0.269" transform="translate(195.528 85.451)"/><path class="f" d="M323.729,105.809h-.217l-.081-.074a2.057,2.057,0,0,0,.425-1.253,1.766,1.766,0,1,0-1.755,1.92,1.734,1.734,0,0,0,1.156-.461l.081.074v.239l1.36,1.474.425-.461Zm-1.632,0a1.231,1.231,0,0,1-1.138-.819,1.413,1.413,0,0,1,.266-1.453,1.16,1.16,0,0,1,1.341-.288,1.337,1.337,0,0,1,.756,1.233,1.375,1.375,0,0,1-.356.941,1.169,1.169,0,0,1-.868.386Z" transform="translate(-41.585 -16.471)"/><ellipse class="g" cx="2.975" cy="3.224" rx="2.975" ry="3.224" transform="translate(381.706 85.451)"/><rect class="h" width="27.629" height="20.263" rx="1.127" transform="translate(309.87 105.713)"/><rect class="h" width="35.705" height="3.224" rx="0.283" transform="translate(344.725 105.713)"/><rect class="h" width="35.705" height="3.224" rx="0.283" transform="translate(344.725 112.621)"/><rect class="h" width="35.705" height="3.224" rx="0.283" transform="translate(344.725 119.529)"/><rect class="h" width="27.629" height="20.263" rx="1.127" transform="translate(309.87 137.489)"/><rect class="h" width="35.705" height="3.224" rx="0.283" transform="translate(344.725 137.489)"/><rect class="h" width="35.705" height="3.224" rx="0.283" transform="translate(344.725 144.397)"/><rect class="h" width="35.705" height="3.224" rx="0.306" transform="translate(344.725 151.304)"/><rect class="h" width="27.629" height="20.263" rx="1.127" transform="translate(309.87 169.264)"/><rect class="h" width="35.705" height="3.224" rx="0.306" transform="translate(344.725 169.264)"/><rect class="h" width="35.705" height="3.224" rx="0.306" transform="translate(344.725 176.172)"/><rect class="h" width="35.705" height="3.224" rx="0.306" transform="translate(344.725 183.08)"/><rect class="h" width="27.629" height="20.263" rx="1.127" transform="translate(309.87 201.04)"/><rect class="h" width="35.705" height="3.224" rx="0.306" transform="translate(344.725 201.04)"/><rect class="h" width="35.705" height="3.224" rx="0.306" transform="translate(344.725 207.948)"/><rect class="h" width="35.705" height="3.224" rx="0.306" transform="translate(344.725 214.855)"/><rect class="h" width="27.629" height="20.263" rx="1.127" transform="translate(309.87 232.815)"/><rect class="h" width="35.705" height="3.224" rx="0.306" transform="translate(344.725 232.815)"/><rect class="h" width="35.705" height="3.224" rx="0.306" transform="translate(344.725 239.723)"/><rect class="h" width="35.705" height="3.224" rx="0.306" transform="translate(344.725 246.631)"/><rect class="c" width="43.709" height="2.455" transform="translate(129.61 149.743)"/><rect class="c" width="4.208" height="12.977" transform="translate(133.495 136.766)"/><rect class="c" width="4.208" height="12.977" transform="translate(139.645 136.766)"/><rect class="c" width="4.208" height="12.977" transform="translate(145.796 136.766)"/><rect class="c" width="4.208" height="12.977" transform="translate(151.947 136.766)"/><rect class="c" width="4.208" height="12.977" transform="translate(158.097 136.766)"/><rect class="c" width="4.208" height="12.977" transform="translate(164.252 136.766)"/><rect class="c" width="4.208" height="1.405" transform="translate(133.495 139.22)"/><rect class="c" width="4.208" height="1.405" transform="translate(139.645 139.22)"/><rect class="c" width="4.208" height="1.405" transform="translate(145.796 139.22)"/><rect class="c" width="4.208" height="1.405" transform="translate(151.947 139.22)"/><rect class="c" width="4.208" height="1.405" transform="translate(158.097 139.22)"/><rect class="c" width="4.208" height="1.405" transform="translate(164.252 139.22)"/><rect class="c" width="4.208" height="1.405" transform="translate(133.495 145.534)"/><rect class="c" width="4.208" height="1.405" transform="translate(139.645 145.534)"/><rect class="c" width="4.208" height="1.405" transform="translate(145.796 145.534)"/><rect class="c" width="4.208" height="1.405" transform="translate(151.947 145.534)"/><rect class="c" width="4.208" height="1.405" transform="translate(158.097 145.534)"/><rect class="c" width="4.208" height="1.405" transform="translate(164.252 145.534)"/><rect class="c" width="43.709" height="2.455" transform="translate(225.44 156.057)"/><rect class="c" width="4.208" height="12.977" transform="translate(229.325 143.08)"/><rect class="c" width="4.208" height="12.977" transform="translate(235.476 143.08)"/><rect class="c" width="4.208" height="12.977" transform="translate(241.626 143.08)"/><rect class="c" width="4.208" height="12.977" transform="translate(247.781 143.08)"/><rect class="c" width="4.208" height="12.977" transform="translate(253.932 143.08)"/><rect class="c" width="4.208" height="12.977" transform="translate(260.083 143.08)"/><rect class="c" width="4.208" height="1.405" transform="translate(229.325 145.534)"/><rect class="c" width="4.208" height="1.405" transform="translate(235.476 145.534)"/><rect class="c" width="4.208" height="1.405" transform="translate(241.626 145.534)"/><rect class="c" width="4.208" height="1.405" transform="translate(247.781 145.534)"/><rect class="c" width="4.208" height="1.405" transform="translate(253.932 145.534)"/><rect class="c" width="4.208" height="1.405" transform="translate(260.083 145.534)"/><rect class="c" width="4.208" height="1.405" transform="translate(229.325 151.848)"/><rect class="c" width="4.208" height="1.405" transform="translate(235.476 151.848)"/><rect class="c" width="4.208" height="1.405" transform="translate(241.626 151.848)"/><rect class="c" width="4.208" height="1.405" transform="translate(247.781 151.848)"/><rect class="c" width="4.208" height="1.405" transform="translate(253.932 151.848)"/><rect class="c" width="4.208" height="1.405" transform="translate(260.083 151.848)"/><rect class="c" width="43.709" height="2.455" transform="translate(225.44 173.943)"/><rect class="c" width="4.208" height="12.977" transform="translate(229.325 160.966)"/><rect class="c" width="4.208" height="12.977" transform="translate(235.476 160.966)"/><rect class="c" width="4.208" height="12.977" transform="translate(241.626 160.966)"/><rect class="c" width="4.208" height="12.977" transform="translate(247.781 160.966)"/><rect class="c" width="4.208" height="12.977" transform="translate(253.932 160.966)"/><rect class="c" width="4.208" height="12.977" transform="translate(260.083 160.966)"/><rect class="c" width="4.208" height="1.405" transform="translate(229.325 163.42)"/><rect class="c" width="4.208" height="1.405" transform="translate(235.476 163.42)"/><rect class="c" width="4.208" height="1.405" transform="translate(241.626 163.42)"/><rect class="c" width="4.208" height="1.405" transform="translate(247.781 163.42)"/><rect class="c" width="4.208" height="1.405" transform="translate(253.932 163.42)"/><rect class="c" width="4.208" height="1.405" transform="translate(260.083 163.42)"/><rect class="c" width="4.208" height="1.405" transform="translate(229.325 169.734)"/><rect class="c" width="4.208" height="1.405" transform="translate(235.476 169.734)"/><rect class="c" width="4.208" height="1.405" transform="translate(241.626 169.734)"/><rect class="c" width="4.208" height="1.405" transform="translate(247.781 169.734)"/><rect class="c" width="4.208" height="1.405" transform="translate(253.932 169.734)"/><rect class="c" width="4.208" height="1.405" transform="translate(260.083 169.734)"/><path class="c" d="M186.657,194.466a13.211,13.211,0,0,1-.893-1.423l6.3-1.119-6.8.055a13.418,13.418,0,0,1-.221-9.846l9.118,5.121-8.42-6.705a11.308,11.308,0,0,1,10.5-6.264,11.516,11.516,0,0,1,9.923,7.284,13.283,13.283,0,0,1-1.478,12.887,12.278,12.278,0,0,1,1.309,2.266l-8.17,4.605,8.71-3.164a13.271,13.271,0,0,1-1.849,11.656,13.191,13.191,0,0,1-1.22,16.83,10.838,10.838,0,0,1-15.582,0,13.191,13.191,0,0,1-1.22-16.83,13.258,13.258,0,0,1,0-15.367Z" transform="translate(-30.234 -16.968)"/><path class="c" d="M207.136,202.34a13.054,13.054,0,0,1-2.458,7.673,13.191,13.191,0,0,1-1.221,16.83,10.838,10.838,0,0,1-15.582,0,13.191,13.191,0,0,1-1.219-16.83C185.114,207.908,207.136,200.945,207.136,202.34Z" transform="translate(-30.234 -17.161)"/><path class="j" d="M198.326,233.637q.03.049.055.1h-3.894c.021-.032.034-.069.055-.1a4.353,4.353,0,0,1-.5-2.077,4.585,4.585,0,0,1,.234-1.464h0c.217.037.485.078.795.115a12.6,12.6,0,0,0,2.716,0q.391-.041.8-.111a.045.045,0,0,0,0,.023,4.456,4.456,0,0,1,.23,1.441A4.354,4.354,0,0,1,198.326,233.637Z" transform="translate(-31.056 -17.354)"/><path class="c" d="M180.658,233.443H158.98c-.047-.134-.089-.276-.128-.414a13.338,13.338,0,0,1,.251-8.123,13.032,13.032,0,0,1-4.187-14.686,11.184,11.184,0,0,1-1.237-1.073l5.7-3.081-6.486,2.229a13.1,13.1,0,0,1-2.89-9.335l10.121,1.98-9.87-3.716a12.041,12.041,0,0,1,8.324-9.362,10.939,10.939,0,0,1,11.476,3.791,13.242,13.242,0,0,1,2.086,12.8,11.96,11.96,0,0,1,1.883,1.773l-6.554,7,7.46-5.812a13.3,13.3,0,0,1,1.411,11.743,13.015,13.015,0,0,1,4.314,14.281Z" transform="translate(-27.381 -17.059)"/><path class="c" d="M181.419,233.607H159.741c-.047-.134-.089-.276-.128-.414a13.338,13.338,0,0,1,.251-8.123c-2.04-1.529,17.1-15.229,17.479-13.894a13.353,13.353,0,0,1-.251,8.128,13.014,13.014,0,0,1,4.327,14.3Z" transform="translate(-28.142 -17.222)"/><path class="c" d="M287.216,216.688a11.719,11.719,0,0,1-5.743,5.231,13.662,13.662,0,0,1,.047,2.671l-9.186-.6,8.973,2.109a13.059,13.059,0,0,1-1.369,3.758,11.94,11.94,0,0,1-3.06,3.638H264.374v.355H251.622c.026-.12.051-.235.081-.355a12.138,12.138,0,0,1,6.992-8.432,12.58,12.58,0,0,1,7.281-13.189,13.631,13.631,0,0,1-.093-1.718l5.93,2.537-5.866-3.735a12.7,12.7,0,0,1,4.5-8.556l5.4,9.477L271.8,199.447a10.834,10.834,0,0,1,13.8,2.228A13.23,13.23,0,0,1,287.216,216.688Z" transform="translate(-35.856 -17.131)"/><path class="c" d="M279.939,230.062a11.94,11.94,0,0,1-3.06,3.638H264.374v.355H251.622c.026-.12.051-.235.081-.355a12.138,12.138,0,0,1,6.992-8.432c-.106-.921,2.363-.783,5.658-.184C270.809,226.258,280.377,229.27,279.939,230.062Z" transform="translate(-35.856 -17.316)"/><path class="k" d="M223.117,196.7s1.573,9.21-1.938,12.217,2.975,21.032,13.678,18.927,15.064-17.223,15.064-17.223-10.72-2.4-6.746-14.621Z" transform="translate(-33.238 -17.118)"/><path class="e" d="M223.117,196.7s1.573,9.21-1.938,12.217,2.975,21.032,13.678,18.927,15.064-17.223,15.064-17.223-10.72-2.4-6.746-14.621Z" transform="translate(-33.238 -17.118)"/><ellipse class="k" cx="17.746" cy="19.226" rx="17.746" ry="19.226" transform="translate(181.608 147.892)"/><path class="g" d="M260.2,220.864v13.069H201.6V221.459a8.09,8.09,0,0,1,4.536-7.414l1.679-.773c4.251-1.962,9.415-4.4,11.1-5.411a2.762,2.762,0,0,0,.519-.364c.922-1,.74.3.74.3s-.025.249-.043.677c-.1,2.943.289,14.506,12.8,13.544,12.2-.921,12.752-9.864,12.629-12.494q-.01-.365-.055-.728a14.922,14.922,0,0,1,2.47.875A49.814,49.814,0,0,1,255.3,213.1a13.226,13.226,0,0,0,1.114.741,7.364,7.364,0,0,1,1.318,1.018,8.377,8.377,0,0,1,2.47,6Z" transform="translate(-31.686 -17.195)"/><path class="e" d="M249.553,209.669c-1.033,5.185-4.276,14.9-15.965,15.151-12.454.267-13.177-13.152-13.1-16.961a2.5,2.5,0,0,0,.523-.364c.927-1,.74.3.74.3s-1.568,15.321,12.752,14.221S247.066,208.8,247.066,208.8A16.488,16.488,0,0,1,249.553,209.669Z" transform="translate(-33.26 -17.195)"/><path class="l" d="M210.691,184.9a2.923,2.923,0,0,1,3.2,1.266,6.689,6.689,0,0,1,.825,3.3c.769.175,1.2-.769,1.275-1.483.285-2.906.306-5.867,1.207-8.676a10.038,10.038,0,0,1,5.891-6.6,6.339,6.339,0,0,1,3.218-.332c.642.115,1.245.359,1.883.461,2.21.4,4.612-.737,6.682.051a5.535,5.535,0,0,1,2.733,2.791,6.063,6.063,0,0,0,1.063,1.672,7.009,7.009,0,0,0,3.52,1.345c1.262.267,2.64.732,3.179,1.787.485.953.128,2.054-.034,3.085a8.115,8.115,0,0,0,.718,4.776c.234.461.71,1.018,1.275.866a1.141,1.141,0,0,0,.6-.53c1.449-2.2,1.411-5.066,3.23-7.05.608-.663,1.394-1.179,1.985-1.842a4.417,4.417,0,0,0,1.029-3.795c-.327-1.52-1.449-2.763-2.355-4.1a16.721,16.721,0,0,1-2.521-5.669,1.107,1.107,0,0,1,0-.741,1.861,1.861,0,0,1,.646-.571,2.776,2.776,0,0,0,.825-3.376,5.3,5.3,0,0,0-2.92-2.519,17.786,17.786,0,0,0-3.983-.921,2.123,2.123,0,0,1-2.215-1.184c-.123-.345-.123-.718-.247-1.064a2.266,2.266,0,0,0-1.7-1.289,4.607,4.607,0,0,0-2.274.175c-.85.258-1.815.645-2.55.193-.387-.235-.6-.663-1.016-.857-.85-.387-1.726.4-2.334,1.041a5.678,5.678,0,0,1-2.1,1.533,2.918,2.918,0,0,1-2.61-.189,8.688,8.688,0,0,1-1.339-1.557,4.84,4.84,0,0,0-3.167-1.382,10.334,10.334,0,0,0-3.575.424,20.721,20.721,0,0,0-6.278,2.855,6.994,6.994,0,0,0-2.41,2.427,5.908,5.908,0,0,0-.54,2.5,9.4,9.4,0,0,0,2.912,7.493c-1.326.6-1.772,2.068-2.083,3.371a19.887,19.887,0,0,0-.808,6.314,15,15,0,0,1,.221,3.283,7.629,7.629,0,0,0-.2,1.57,1.442,1.442,0,0,0,1.135,1.147Z" transform="translate(-32.344 -16.824)"/><g class="m" transform="translate(177.174 143.614)"><path d="M257.149,175.288a4.531,4.531,0,0,1-.765,1.225c-.591.672-1.377,1.193-1.985,1.842-1.819,1.971-1.781,4.854-3.23,7.055a1.114,1.114,0,0,1-.6.525c-.553.157-1.029-.387-1.275-.866a8.346,8.346,0,0,1-.633-1.842l-.085.46a8.115,8.115,0,0,0,.718,4.776c.234.461.71,1.018,1.275.866a1.141,1.141,0,0,0,.6-.53c1.449-2.2,1.411-5.066,3.23-7.05.608-.663,1.394-1.179,1.985-1.842a4.417,4.417,0,0,0,1.029-3.795,5.23,5.23,0,0,0-.264-.824Z" transform="translate(-212.768 -160.588)"/><path d="M253.551,161.558a1.819,1.819,0,0,0-.646.571,1.1,1.1,0,0,0,0,.737,16.5,16.5,0,0,0,.642,2.1h0a2.776,2.776,0,0,0,.825-3.376,3.289,3.289,0,0,0-.3-.539A2.526,2.526,0,0,1,253.551,161.558Z" transform="translate(-213.132 -160.49)"/><path d="M212.449,165.823a8.732,8.732,0,0,1-2.784-5.337,7.767,7.767,0,0,0-.128,1.253,10.2,10.2,0,0,0,1.4,5.7,3.1,3.1,0,0,1,1.513-1.612Z" transform="translate(-209.52 -160.486)"/><path d="M245.343,180.283c.162-1.036.519-2.137.034-3.085-.54-1.059-1.917-1.52-3.179-1.787a7.052,7.052,0,0,1-3.52-1.345,6.063,6.063,0,0,1-1.063-1.672,5.468,5.468,0,0,0-2.733-2.791c-2.07-.787-4.472.341-6.682-.051-.638-.115-1.241-.355-1.883-.461a6.308,6.308,0,0,0-3.218.332,10.058,10.058,0,0,0-5.891,6.6c-.9,2.8-.922,5.766-1.207,8.676-.072.709-.506,1.658-1.275,1.483a6.743,6.743,0,0,0-.825-3.3,2.922,2.922,0,0,0-3.2-1.262,1.549,1.549,0,0,1-.9-.622,5.782,5.782,0,0,1,0,1.271,7.631,7.631,0,0,0-.2,1.57,1.45,1.45,0,0,0,1.109,1.184,2.923,2.923,0,0,1,3.2,1.266,6.688,6.688,0,0,1,.825,3.3c.769.175,1.2-.769,1.275-1.483.285-2.906.306-5.867,1.207-8.676a10.038,10.038,0,0,1,5.891-6.6,6.339,6.339,0,0,1,3.218-.332c.642.115,1.245.359,1.883.461,2.21.4,4.612-.737,6.682.051a5.536,5.536,0,0,1,2.733,2.791,6.063,6.063,0,0,0,1.063,1.672,7.009,7.009,0,0,0,3.52,1.345,4.535,4.535,0,0,1,3.116,1.676A.429.429,0,0,1,245.343,180.283Z" transform="translate(-209.527 -160.545)"/><path d="M209.779,178.9a9.465,9.465,0,0,0-.14-2.565,12.374,12.374,0,0,0-.081,2.689,5.29,5.29,0,0,0,.077.686C209.682,179.44,209.745,179.173,209.779,178.9Z" transform="translate(-209.52 -160.596)"/></g><path class="f" d="M187.108,252.772V244.46a.226.226,0,0,1,.217-.235h.871a.226.226,0,0,1,.217.235v3.458l3.537-3.551a.543.543,0,0,1,.607-.09.629.629,0,0,1,.341.551v7.529a.629.629,0,0,1-.341.551.543.543,0,0,1-.607-.09l-3.537-3.528v3.44a.226.226,0,0,1-.217.235h-.871A.222.222,0,0,1,187.108,252.772Z" transform="translate(-30.478 -17.452)"/><path class="f" d="M279.806,244.46v8.312a.245.245,0,0,1-.065.168.208.208,0,0,1-.156.067h-.85a.226.226,0,0,1-.217-.235v-3.458l-3.537,3.546a.547.547,0,0,1-.608.089.633.633,0,0,1-.344-.55v-7.557a.633.633,0,0,1,.344-.55.547.547,0,0,1,.608.089l3.537,3.528v-3.435a.226.226,0,0,1,.217-.235h.85a.225.225,0,0,1,.221.221Z" transform="translate(-37.724 -17.452)"/><path class="f" d="M231.911,253.133h-1.73a.888.888,0,0,1-.85-.921v-6.88a.888.888,0,0,1,.85-.921h1.73a.888.888,0,0,1,.85.921v6.88A.888.888,0,0,1,231.911,253.133Zm5.483-.921v-6.88a.888.888,0,0,0-.85-.921H234.8a.888.888,0,0,0-.85.921v6.88a.888.888,0,0,0,.85.921h1.73a.816.816,0,0,0,.612-.263A.961.961,0,0,0,237.394,252.212Z" transform="translate(-33.998 -17.453)"/><rect class="n" width="102.015" height="1.23" transform="translate(148.346 215.804)"/><ellipse class="f" cx="2.691" cy="2.915" rx="2.691" ry="2.915" transform="translate(177.157 213.501)"/><rect class="f" width="31.501" height="1.23" transform="translate(148.346 215.804)"/><ellipse class="g" cx="25.278" cy="5.268" rx="25.278" ry="5.268" transform="translate(381.54 344.048)"/><ellipse class="o" cx="2.941" cy="4.172" rx="2.941" ry="4.172" transform="translate(403.456 342.906)"/><ellipse class="o" cx="2.941" cy="4.172" rx="2.941" ry="4.172" transform="translate(403.456 337.803)"/><ellipse class="o" cx="2.941" cy="4.172" rx="2.941" ry="4.172" transform="translate(403.456 332.706)"/><ellipse class="o" cx="2.941" cy="4.172" rx="2.941" ry="4.172" transform="translate(403.456 327.603)"/><ellipse class="o" cx="2.941" cy="4.172" rx="2.941" ry="4.172" transform="translate(403.456 322.501)"/><ellipse class="o" cx="2.941" cy="4.172" rx="2.941" ry="4.172" transform="translate(403.456 317.398)"/><ellipse class="o" cx="2.941" cy="4.172" rx="2.941" ry="4.172" transform="translate(403.456 312.296)"/><path class="g" d="M469.318,299.222a15.923,15.923,0,0,0,1.1-1.75l-7.736-1.382,8.365.069a16.5,16.5,0,0,0,.268-12.1L460.1,290.367l10.346-8.239a13.881,13.881,0,0,0-12.885-7.61,14.148,14.148,0,0,0-12.148,8.918,16.323,16.323,0,0,0,1.748,15.785,15.834,15.834,0,0,0-1.607,2.763l10.04,5.651-10.7-3.891a16.314,16.314,0,0,0,2.27,14.34,16.2,16.2,0,0,0,1.518,20.656,13.31,13.31,0,0,0,19.126,0,16.2,16.2,0,0,0,1.519-20.656,16.293,16.293,0,0,0,0-18.881Z" transform="translate(-51.907 -17.662)"/><path class="e" d="M444.146,308.9a16.021,16.021,0,0,0,3.014,9.441A16.2,16.2,0,0,0,448.679,339a13.31,13.31,0,0,0,19.126,0,16.2,16.2,0,0,0,1.518-20.655C471.21,315.747,444.146,307.186,444.146,308.9Z" transform="translate(-51.908 -17.898)"/><ellipse class="c" cx="42.081" cy="9.671" rx="42.081" ry="9.671" transform="translate(81.187 363.602)"/><path class="p" d="M162.968,389.345a10.275,10.275,0,0,0-2.648-.387,7.965,7.965,0,0,1-4.871-2.56,9.781,9.781,0,0,1-1.947-3.224c.281.111.561.226.85.35-.85-2.151.043-4.564.825-6.737q1.989-5.526,3.762-11.112c2.975-9.436,5.526-19.25,5.471-29.289,0-3.629-.616-7.06-.735-10.684-.089-2.689.293-5.374.276-8.068,0-.378,0-.751-.025-1.128a7.453,7.453,0,0,0,2.24-5.83,15.141,15.141,0,0,0-.225-1.695q-.226-1.458-.6-2.883c-.281-1-.663-1.957-.99-2.933-.633-1.893-1.063-3.864-1.6-5.789a1.73,1.73,0,0,1,.578.17,1.4,1.4,0,0,1-.272-.6,16.084,16.084,0,0,1-.51-3.762l.361-.175a10.592,10.592,0,0,0-.174-3.726c.2-1.976.523-3.965.718-5.931.072-.737.042-1.662-.582-1.842-.128-1.055-.179-2.123-.23-3.187q-.268-5.568-.531-11.131c-.179-3.726-.357-7.446-.425-11.177a35.268,35.268,0,0,0-.591-7.083,9.246,9.246,0,0,0-.3-3.224c-.791-2.712-3.247-4.863-5.738-4.711a11.954,11.954,0,0,0-2.716-2.975c.5-1.207,1.092-2.45,1.581-3.426,3.987-1.4,6.9-5.664,6.9-10.73a12.514,12.514,0,0,0-1.169-5.337,6.114,6.114,0,0,0,.187-.622,5.509,5.509,0,0,0-.191-2.989,9.149,9.149,0,0,0-.425-1.068c-.111-.23-.23-.461-.353-.682l-.217-.355a6.619,6.619,0,0,0-.425-.626,15.038,15.038,0,0,0-.969-1.262,9.893,9.893,0,0,0-1.394-1.345,5.941,5.941,0,0,0-2.3-1.147,6.474,6.474,0,0,0-1.458-.143c-.293,0-.591,0-.884.028-.6.037-1.186.083-1.777.078a3.631,3.631,0,0,1-.591-.032,20.084,20.084,0,0,1-3.077-.7l-.51-.115c-.174-.037-.344-.069-.519-.092a8.991,8.991,0,0,0-1.407-.092h-.472a12.072,12.072,0,0,0-1.407.157L141,207.6a12.668,12.668,0,0,0-3.422,1.1c-.14.069-.285.147-.425.23l-.085.051c-.115.064-.23.134-.34.207l-.064.041-.361.249-.03.023c-3.375,2.459-5.369,7.12-5.874,11.743-.565,5.19.425,10.421,1.415,15.529l.893,4.605c.038.207.081.41.119.617a10.143,10.143,0,0,0-2.8,4.209,19.374,19.374,0,0,0-.8,7.29c0,.507.025,1.013.072,1.52-.106.958-.2,1.92-.259,2.887-.268,4.467.234,8.957.1,13.433-.1,3.449-.582,6.908-.349,10.334a50.07,50.07,0,0,0,1.7,8.92l1.071,4.181a1.146,1.146,0,0,0,.268.576.758.758,0,0,0,.6.134,41.4,41.4,0,0,0-1.743,5.287,17.553,17.553,0,0,0-.629,3.4,22.393,22.393,0,0,0,.761,6.254q1.02,4.605,2.032,9.247.714,3.247,1.424,6.489a74.412,74.412,0,0,1,2.049,12.945,30.412,30.412,0,0,1-.425,6.581,62.045,62.045,0,0,0-.527,19.724,103.6,103.6,0,0,0,3.439,16.307c.344-.2.693-.382,1.05-.553l-.149.3q-.735,1.382-1.36,2.832a16.905,16.905,0,0,0-.727,1.939,23.537,23.537,0,0,0-.706,5.743,3.034,3.034,0,0,0,.089,1.11,2.156,2.156,0,0,0,1.53,1.243,12.923,12.923,0,0,0,5.653.1.792.792,0,0,0,.038.134,2.148,2.148,0,0,0,1.53,1.243c2.627.81,5.4.046,8.106-.23s5.369-.074,7.974-.751a3.626,3.626,0,0,0,1.105-.461,3.921,3.921,0,0,0,1.394-2.1,2.868,2.868,0,0,0,.162-.686A2.321,2.321,0,0,0,162.968,389.345Zm-8.99-42.648a12.342,12.342,0,0,1-.85,3.122,63.207,63.207,0,0,0-4.361,14.815,74.228,74.228,0,0,0-.965,10.246c-.043,2.533.047,5.185-.927,7.46l.353-.06c-.111.221-.217.461-.319.635l-.051.1a10.535,10.535,0,0,1-1.16-3.527c0-.041-.191-.074-.485-.092a103.1,103.1,0,0,1-1.241-22.054,11.007,11.007,0,0,1,.34-2.648c.217-.741.582-1.418.85-2.137a16.785,16.785,0,0,0,.85-3.749,57.633,57.633,0,0,0,.536-9.91,44.353,44.353,0,0,1,1.135-9.348c.272-1.478.523-2.961.659-4.444l.025-.3a46.907,46.907,0,0,1,5.22,14.681,22.709,22.709,0,0,1,.391,7.207Zm-18.193-66.554.136.129a9.836,9.836,0,0,1,1.131,1.285,1.746,1.746,0,0,1,.357.709c.127.672-.387,1.243-.808,1.736a7.733,7.733,0,0,0-.514.672q-.136-2.266-.289-4.531Z" transform="translate(-25.61 -17.197)"/><path class="g" d="M129.9,251.585l-.468,3.91c-.157,1.326-.315,2.648-.4,3.979-.285,4.43.242,8.879.106,13.318-.111,3.417-.612,6.829-.37,10.242a46.548,46.548,0,0,0,1.8,8.842l1.122,4.145a1.127,1.127,0,0,0,.281.571.926.926,0,0,0,.718.124l4.982-.488c-.319-1.584-.672-3.224-.85-4.849-.136-1.271-.217-2.551-.3-3.831-.264-3.988-.565-7.976-.85-11.973l-.531-7a56.947,56.947,0,0,0-1.165-9.045,18.464,18.464,0,0,0-4.072-7.944Z" transform="translate(-25.608 -17.503)"/><path class="e" d="M129.9,251.585l-.468,3.91c-.157,1.326-.315,2.648-.4,3.979-.285,4.43.242,8.879.106,13.318-.111,3.417-.612,6.829-.37,10.242a46.548,46.548,0,0,0,1.8,8.842l1.122,4.145a1.127,1.127,0,0,0,.281.571.926.926,0,0,0,.718.124l4.982-.488c-.319-1.584-.672-3.224-.85-4.849-.136-1.271-.217-2.551-.3-3.831-.264-3.988-.565-7.976-.85-11.973l-.531-7a56.947,56.947,0,0,0-1.165-9.045,18.464,18.464,0,0,0-4.072-7.944Z" transform="translate(-25.608 -17.503)"/><path class="q" d="M139.554,385.577a17.254,17.254,0,0,0-.765,1.925,22.34,22.34,0,0,0-.74,5.692,2.983,2.983,0,0,0,.094,1.1,2.23,2.23,0,0,0,1.611,1.23c2.759.806,5.666.051,8.5-.226s5.636-.074,8.374-.741a4.061,4.061,0,0,0,1.16-.438,3.9,3.9,0,0,0,1.466-2.072,2.89,2.89,0,0,0,.166-.682,2.329,2.329,0,0,0-1.607-2.22,11.237,11.237,0,0,0-2.78-.382,9.092,9.092,0,0,1-7.753-7.925,17.792,17.792,0,0,0-5.1.2,4.6,4.6,0,0,0-1.22,1.736Q140.209,384.14,139.554,385.577Z" transform="translate(-26.386 -18.397)"/><path class="e" d="M139.554,385.577a17.254,17.254,0,0,0-.765,1.925,22.34,22.34,0,0,0-.74,5.692,2.983,2.983,0,0,0,.094,1.1,2.23,2.23,0,0,0,1.611,1.23c2.759.806,5.666.051,8.5-.226s5.636-.074,8.374-.741a4.061,4.061,0,0,0,1.16-.438,3.9,3.9,0,0,0,1.466-2.072,2.89,2.89,0,0,0,.166-.682,2.329,2.329,0,0,0-1.607-2.22,11.237,11.237,0,0,0-2.78-.382,9.092,9.092,0,0,1-7.753-7.925,17.792,17.792,0,0,0-5.1.2,4.6,4.6,0,0,0-1.22,1.736Q140.209,384.14,139.554,385.577Z" transform="translate(-26.386 -18.397)"/><path class="q" d="M147.832,387.051a16.381,16.381,0,0,0-.765,1.92,22.1,22.1,0,0,0-.74,5.692,2.9,2.9,0,0,0,.094,1.1A2.232,2.232,0,0,0,148.027,397c2.759.8,5.67.046,8.5-.23s5.641-.074,8.374-.741a3.344,3.344,0,0,0,2.627-2.533,2.891,2.891,0,0,0,.166-.682,2.334,2.334,0,0,0-1.607-2.22,11.459,11.459,0,0,0-2.78-.382,9.1,9.1,0,0,1-7.753-7.921,17.771,17.771,0,0,0-5.1.193,4.563,4.563,0,0,0-1.224,1.736C148.746,385.154,148.269,386.093,147.832,387.051Z" transform="translate(-27.076 -18.407)"/><path class="l" d="M166.263,337.5c.06,9.952-2.61,19.678-5.743,29.012q-1.862,5.554-3.949,11.011c-.825,2.155-1.755,4.55-.871,6.677a13.88,13.88,0,0,0-7.825-1.184c1.02-2.257.922-4.881.969-7.368a69.807,69.807,0,0,1,1-10.154,59.939,59.939,0,0,1,4.586-14.686,11.879,11.879,0,0,0,.888-3.095,21.376,21.376,0,0,0-.378-7.143,44.637,44.637,0,0,0-5.483-14.552l-.026.295q-.238,2.222-.689,4.407a41.562,41.562,0,0,0-1.194,9.266,54.229,54.229,0,0,1-.561,9.823,15.933,15.933,0,0,1-.914,3.712c-.293.714-.676,1.382-.905,2.123a10.421,10.421,0,0,0-.357,2.625,96.284,96.284,0,0,0,1.411,22.445,12.335,12.335,0,0,0-6.852,1.69,97.81,97.81,0,0,1-3.613-16.164,58.1,58.1,0,0,1,.553-19.553,28.1,28.1,0,0,0,.446-6.516,69.956,69.956,0,0,0-2.151-12.835l-1.5-6.447q-1.063-4.605-2.125-9.169a21.011,21.011,0,0,1-.8-6.2,16.494,16.494,0,0,1,.663-3.371,39,39,0,0,1,4.705-10.426c8.191.5,16.48-.332,24.654-1.013a1.545,1.545,0,0,1,1.156.212,1.845,1.845,0,0,1,.468,1.142l3.073,18.881a51.217,51.217,0,0,1,.871,7.967c0,2.671-.383,5.333-.289,8C165.617,330.5,166.246,333.9,166.263,337.5Z" transform="translate(-25.73 -17.774)"/><path class="e" d="M150.3,326.457q-.238,2.221-.689,4.407c-1.781-3.339-3.7-6.595-5.343-10.016-.425-.88-.825-1.773-1.228-2.666l-1.211-2.671c-.225-.5-.451-1-.655-1.515a11.558,11.558,0,0,1-.761-2.3c.6-.12,2.066,1.621,2.508,2.077a36.3,36.3,0,0,1,2.55,3.058,33.39,33.39,0,0,1,2.661,3.776,19.27,19.27,0,0,1,2.168,5.853Z" transform="translate(-26.584 -17.919)"/><path class="r" d="M157,234.292s-4.548,7.852-3.707,9.5-14.325-1.46-14.325-1.46,8.259-7.852,7.413-11.14S157,234.292,157,234.292Z" transform="translate(-26.464 -17.355)"/><ellipse class="r" cx="10.282" cy="11.14" rx="10.282" ry="11.14" transform="translate(116.212 197.033)"/><path class="g" d="M156.343,242.573a10.643,10.643,0,0,0-4.323-3.767,14.492,14.492,0,0,0-3.073-.82l-4.1-.783a4.841,4.841,0,0,0-3.014.074,4.985,4.985,0,0,0-1.275,1.018,17.236,17.236,0,0,1-4.595,3.831c-.489.226-1,.391-1.488.617a9.051,9.051,0,0,0-4.344,5.066,18.214,18.214,0,0,0-.85,7.221,13.718,13.718,0,0,0,.234,2.542,17.284,17.284,0,0,0,.778,2.33,45.276,45.276,0,0,1,1.42,4.941q1.594,6.608,2.652,13.355a5.317,5.317,0,0,0,.514,1.842,6.353,6.353,0,0,0,1.42,1.478,9.263,9.263,0,0,1,1.186,1.276,1.7,1.7,0,0,1,.387.682c.132.663-.425,1.234-.85,1.718a8.507,8.507,0,0,0-1.921,3.624,1.541,1.541,0,0,0-.306,1,1.885,1.885,0,0,1,.1.792,1.809,1.809,0,0,1-.387.649,2.613,2.613,0,0,0-.425,1.971,27.03,27.03,0,0,0,10.065,2.551c.85.046,1.7.046,2.55.157.6.083,1.2.216,1.8.295a17.963,17.963,0,0,0,2.635.074c4.578-.1,9.288-.226,13.491-2.192.4-2.335-.459-4.716-.995-7.018-.85-3.684-1.063-7.456-1.7-11.172-.425-2.538-1.063-5.038-1.424-7.594a20.076,20.076,0,0,1,.2-7.691c.574-2.2.748-4.449,1.343-6.645a12.286,12.286,0,0,0,.34-6.751C161.542,244.553,158.962,242.421,156.343,242.573Z" transform="translate(-25.654 -17.402)"/><path class="q" d="M161.492,219.473c.5-1.976-.485-4.034-1.658-5.641a8.858,8.858,0,0,0-4.892-3.716c-1.619-.355-3.3.074-4.948-.069-1.458-.124-2.861-.7-4.31-.921a12.618,12.618,0,0,0-3.945.161,14.1,14.1,0,0,0-3.592,1.087c-4.378,2.1-6.941,7.29-7.536,12.434s.446,10.329,1.483,15.39l.939,4.577a97.888,97.888,0,0,1,2.215,14.423,32.911,32.911,0,0,1-2.074,14.322A30.149,30.149,0,0,0,146.236,255.5c.663-1.884,1.156-3.841,1.9-5.692.633-1.593,1.445-3.1,2.006-4.729a16.521,16.521,0,0,0,.9-5.743c-.034-1.474-.259-2.938-.221-4.412a6.415,6.415,0,0,1,1.326-4.076,11.347,11.347,0,0,1,3.094-1.994,13.189,13.189,0,0,0,4.331-3.914,4.506,4.506,0,0,0,.884-2.468C160.62,221.384,161.228,220.519,161.492,219.473Z" transform="translate(-25.753 -17.208)"/><path class="r" d="M164.189,303.767a32.009,32.009,0,0,0,.145,3.44c.174.847.578,1.612.816,2.441a12.518,12.518,0,0,1,.361,2.934c.034.829-.025,1.842-.706,2.229-.3.17-.655.17-.965.318s-.574.548-.4.861.485.263.765.322.582.373.425.626a.482.482,0,0,1-.247.17,2.915,2.915,0,0,0-.8.414.919.919,0,0,0-.327.843.513.513,0,0,0,.266.35.447.447,0,0,0,.418-.009,2.462,2.462,0,0,0-.2.921c1.088.507,2.308-.157,3.328-.8a12.463,12.463,0,0,0,1.275-.884,7.154,7.154,0,0,0,2.482-5.881,14.791,14.791,0,0,0-.242-1.681,27.079,27.079,0,0,0-.625-2.86c-.293-.99-.693-1.934-1.037-2.906-.731-2.068-1.2-4.232-1.866-6.328a.971.971,0,0,0-.319-.548.837.837,0,0,0-.472-.1,7.156,7.156,0,0,0-2.215.221,2.341,2.341,0,0,0-1.352.921c-.2.461.119.847.31,1.23a10.9,10.9,0,0,1,1.173,3.749Z" transform="translate(-28.438 -17.822)"/><path class="e" d="M162.7,247.462a3.382,3.382,0,0,1,.544.82c1.462,2.878,1.479,6.318,1.547,9.6.077,3.684.264,7.368.451,11.075l.557,11.052c.055,1.055.106,2.109.247,3.155.655.18.68,1.1.608,1.842-.472,4.5-1.641,9.141-.425,13.475a1.4,1.4,0,0,0,.285.6,3.076,3.076,0,0,0-1.9-.028c-.608.138-1.194.382-1.807.534a3.675,3.675,0,0,0-2.176.921,48.81,48.81,0,0,1-1.424-5.95,24.564,24.564,0,0,0-1.058-5.443c-.276-.686-.65-1.322-.99-1.98a45.81,45.81,0,0,1-3.511-11.177,17.647,17.647,0,0,1-.272-5.554,20.655,20.655,0,0,0,.213-2.556,21.19,21.19,0,0,0-.327-2.689,19.477,19.477,0,0,1,.5-7.787c.638-2.344,1.2-4.812,2.55-6.783A8.292,8.292,0,0,1,162.7,247.462Z" transform="translate(-27.64 -17.474)"/><path class="g" d="M163.251,247.091a3.414,3.414,0,0,1,.544.824c1.462,2.874,1.479,6.318,1.547,9.6.077,3.684.264,7.368.451,11.052l.557,11.052c.055,1.055.106,2.109.247,3.155.655.18.68,1.1.6,1.842-.468,4.5-1.636,9.137-.425,13.475a1.4,1.4,0,0,0,.285.6,3.075,3.075,0,0,0-1.9-.028c-.608.138-1.194.382-1.807.53a3.7,3.7,0,0,0-2.176.921,48.325,48.325,0,0,1-1.411-5.977,24.524,24.524,0,0,0-1.058-5.439q-.449-1.017-.99-1.98c-1.785-3.445-2.657-7.341-3.511-11.181a17.642,17.642,0,0,1-.272-5.554,12.947,12.947,0,0,0-.115-5.245,19.453,19.453,0,0,1,.5-7.783c.638-2.344,1.2-4.812,2.55-6.783A8.244,8.244,0,0,1,163.251,247.091Z" transform="translate(-27.687 -17.472)"/><g class="m" transform="translate(107.421 191.832)"><path d="M160.374,213.832a8.858,8.858,0,0,0-4.892-3.716c-1.619-.355-3.3.074-4.948-.069-1.458-.124-2.861-.7-4.31-.921a12.618,12.618,0,0,0-3.945.161,14.1,14.1,0,0,0-3.592,1.087,10.48,10.48,0,0,0-1.772,1.091,14.2,14.2,0,0,1,3.175-.921,12.571,12.571,0,0,1,3.94-.161c1.454.2,2.852.769,4.314.893,1.645.143,3.324-.281,4.948.069a8.815,8.815,0,0,1,4.888,3.721c1.177,1.6,2.159,3.661,1.662,5.641-.264,1.041-.876,1.953-1.041,3.026a4.483,4.483,0,0,1-.888,2.468,13.39,13.39,0,0,1-3.12,3.145c.327-.166.663-.332.982-.511a13.188,13.188,0,0,0,4.331-3.914,4.506,4.506,0,0,0,.884-2.468c.17-1.087.778-1.98,1.041-3.026C162.533,217.5,161.547,215.439,160.374,213.832Z" transform="translate(-133.714 -209.04)"/><path d="M152.389,231.024a4.372,4.372,0,0,1,.574-.539,8.722,8.722,0,0,0-2.767,1.842,6.482,6.482,0,0,0-1.326,4.076c-.051,1.474.191,2.938.221,4.407a16.545,16.545,0,0,1-.9,5.747c-.561,1.626-1.373,3.132-2.006,4.73-.735,1.842-1.228,3.8-1.892,5.687a30.525,30.525,0,0,1-10.8,14.561c-.025.06-.047.124-.072.184A30.149,30.149,0,0,0,146.485,255.7c.663-1.883,1.156-3.841,1.9-5.692.633-1.593,1.445-3.1,2.006-4.73a16.521,16.521,0,0,0,.9-5.743c-.034-1.474-.259-2.938-.221-4.412A6.48,6.48,0,0,1,152.389,231.024Z" transform="translate(-133.423 -209.189)"/></g></g></g></svg>